<svg width="128" height="128" viewBox="0 0 128 128" xmlns="http://www.w3.org/2000/svg" role="img" aria-label="Bilibili Subtitle Helper">
  <defs>
    <linearGradient id="bg" x1="0" y1="0" x2="0" y2="1">
      <stop offset="0%" stop-color="#00AEEC"/>
      <stop offset="100%" stop-color="#008CD2"/>
    </linearGradient>
  </defs>
  <rect width="128" height="128" rx="28" fill="url(#bg)"/>
  <rect x="14" y="32" width="72" height="58" rx="12" fill="#FFF"/>
  <rect x="21" y="39" width="58" height="44" rx="6" fill="#008CD2"/>
  <ellipse cx="40" cy="60" rx="5" ry="5" fill="#FFF"/>
  <ellipse cx="62" cy="60" rx="5" ry="5" fill="#FFF"/>
  <line x1="32" y1="32" x2="24" y2="14" stroke="#FFF" stroke-width="5" stroke-linecap="round"/>
  <circle cx="24" cy="11" r="6" fill="#FFF"/>
  <line x1="68" y1="32" x2="76" y2="14" stroke="#FFF" stroke-width="5" stroke-linecap="round"/>
  <circle cx="76" cy="11" r="6" fill="#FFF"/>
  <rect x="26" y="90" width="10" height="5" rx="2" fill="#FFF"/>
  <rect x="64" y="90" width="10" height="5" rx="2" fill="#FFF"/>
  <rect x="72" y="58" width="48" height="38" rx="10" fill="#FFF"/>
  <polygon points="78,96 76,106 90,96" fill="#FFF"/>
  <text x="80" y="88" fill="#008CD2" font-family="STHeiti, system-ui, sans-serif" font-weight="700" font-size="24">字</text>
</svg>
